<svg xmlns="http://www.w3.org/2000/svg" xmlns:xlink="http://www.w3.org/1999/xlink" version="1.1" id="Your_Icon" x="0px" y="0px" width="100px" height="100px" viewBox="0 0 100 100" enable-background="new 0 0 100 100" xml:space="preserve">
<g>
	<path d="M93.102,2.316H9.545v11.738H6.048c-2.218,0-4.016,1.798-4.016,4.016c0,2.219,1.798,4.017,4.016,4.017h3.497v11.823H6.048   c-2.218,0-4.016,1.797-4.016,4.016c0,2.218,1.798,4.016,4.016,4.016h3.497v11.821H6.048c-2.218,0-4.016,1.797-4.016,4.015   c0,2.221,1.798,4.017,4.016,4.017h3.497v11.822H6.048c-2.218,0-4.016,1.799-4.016,4.017s1.798,4.017,4.016,4.017h3.497v10.838   l5.106,6.338h83.888v-89.7L93.102,2.316z M89.697,89.982H12.949v-8.333h3.344c2.218,0,4.017-1.799,4.017-4.017   s-1.799-4.017-4.017-4.017h-3.344V61.794h3.344c2.218,0,4.017-1.796,4.017-4.017c0-2.218-1.799-4.015-4.017-4.015h-3.344V41.941   h3.344c2.218,0,4.017-1.798,4.017-4.016c0-2.219-1.799-4.016-4.017-4.016h-3.344V22.086h3.344c2.218,0,4.017-1.797,4.017-4.017   c0-2.218-1.799-4.016-4.017-4.016h-3.344V5.721h76.748V89.982z"/>
	<path d="M75.422,81.359l3.344-1.452l-6.793-15.6l-3.344,1.454l-2.023,0.885l6.758,15.524   C74.041,81.925,74.725,81.662,75.422,81.359z"/>
	<path d="M71.041,82.909l-6.609-15.186c-2.344,1.139-9.514,2.737-17.072-14.621c-7.555-17.355-1.502-21.518,0.929-22.458   l-6.61-15.183c-14.407,8.879-12.932,25.197-5.41,42.472C43.788,75.206,54.729,87.404,71.041,82.909z"/>
	<path d="M52.584,28.905l3.342-1.455l-6.789-15.596l-3.011,1.311l-0.332,0.145c-0.696,0.303-1.355,0.625-1.998,0.954l6.759,15.525   L52.584,28.905z"/>
</g>
</svg>